<!-- icon666.com - MILLIONS OF FREE VECTOR ICONS --><svg viewBox="0 0 480 480" xmlns="http://www.w3.org/2000/svg"><path d="m472 280v32c-.027344 8.824219-7.175781 15.972656-16 16h-136c-26.507812 0-48 21.492188-48 48 .039062 26.492188 21.507812 47.960938 48 48l16 48h-192l16-48c26.492188-.039062 47.960938-21.507812 48-48 0-26.507812-21.492188-48-48-48h-136c-8.824219-.027344-15.972656-7.175781-16-16v-32zm0 0" fill="#9bc9ff"></path><path d="m304 96h-192v96h256v-96zm0 0" fill="#9bc9ff"></path><g fill="#57a4ff"><path d="m456 0h-432c-13.253906 0-24 10.746094-24 24v288c0 13.253906 10.746094 24 24 24h136c22.082031.027344 39.972656 17.917969 40 40-.039062 22.074219-17.925781 39.960938-40 40-.105469 0-.183594.054688-.289062.054688-.605469.050781-1.203126.171874-1.78125.359374-.425782.085938-.839844.203126-1.242188.355469-.476562.25-.925781.550781-1.34375.894531-.40625.257813-.785156.550782-1.136719.878907-.296875.371093-.566406.769531-.800781 1.183593-.320312.460938-.585938.953126-.796875 1.472657-.042969.097656-.121094.167969-.160156.273437l-16 48c-.8125 2.433594-.40625 5.105469 1.089843 7.191406 1.492188 2.082032 3.894532 3.324219 6.460938 3.335938h192c2.570312 0 4.988281-1.234375 6.492188-3.320312 1.503906-2.085938 1.914062-4.769532 1.101562-7.207032l-16-48c0-.105468-.121094-.175781-.160156-.273437-.214844-.507813-.484375-.996094-.800782-1.445313-.234374-.425781-.5-.832031-.800781-1.210937-.789062-.644531-1.617187-1.238281-2.480469-1.78125-.398437-.148438-.808593-.257813-1.222656-.335938-.582031-.195312-1.1875-.320312-1.800781-.371093-.105469 0-.183594-.054688-.289063-.054688-22.074218-.039062-39.960937-17.925781-40-40 .027344-22.082031 17.921876-39.972656 40-40h135.960938c13.253906 0 24-10.746094 24-24v-288c0-13.253906-10.746094-24-24-24zm-192 376c.03125 28.640625 21.648438 52.65625 50.128906 55.6875l10.773438 32.3125h-169.804688l10.773438-32.3125c28.480468-3.039062 50.089844-27.046875 50.128906-55.6875.003906-15.066406-6.085938-29.496094-16.886719-40h81.773438c-10.800781 10.503906-16.890625 24.933594-16.886719 40zm200-64c0 4.417969-3.582031 8-8 8h-432c-4.417969 0-8-3.582031-8-8v-24h448zm-448-40v-248c0-4.417969 3.582031-8 8-8h432c4.417969 0 8 3.582031 8 8v248zm0 0"></path><path d="m368 56h-256c-4.417969 0-8 3.582031-8 8v160c0 4.417969 3.582031 8 8 8h256c4.417969 0 8-3.582031 8-8v-160c0-4.417969-3.582031-8-8-8zm-200 144v16h-16v-16zm16 0h16v16h-16zm32 0h16v16h-16zm32 0h16v16h-16zm32 0h16v16h-16zm32 0h16v16h-16zm-192-16v-80h240v80zm192-96v-16h16v16zm-16 0h-16v-16h16zm-32 0h-16v-16h16zm-32 0h-16v-16h16zm-32 0h-16v-16h16zm-32 0h-16v-16h16zm192 0h-16v-16h16zm-240-16h16v16h-16zm0 128h16v16h-16zm240 16h-16v-16h16zm0 0"></path></g></svg>